<svg width="146" height="48" viewBox="0 0 146 48" fill="none" xmlns="http://www.w3.org/2000/svg"><path d="M51.11 20.881V0h-5.685v20.881h5.686zm2.05 0h5.279v-8.655c0-.775.88-2.594 3.113-2.594.981 0 2.234.64 2.234 2.358v8.891h5.28v-8.655c0-.809.71-2.594 3.113-2.594 1.32 0 2.233.943 2.233 2.324v8.925h5.28v-8.554c0-3.671-2.166-6.905-6.566-6.905-2.437 0-4.23 1.213-5.347 2.56-1.15-1.65-3.046-2.56-5.28-2.56-1.658 0-3.011.607-4.06 1.415V5.726h-5.28V20.88zM81.385 5.726V25.73h5.245v-6.364c1.185 1.111 2.741 1.818 4.501 1.818 4.535 0 7.852-3.368 7.852-7.88 0-4.48-3.283-7.882-7.818-7.882-1.76 0-3.35.708-4.535 1.82V5.725h-5.245zm5.279 7.577c0-3.132 2.267-3.974 3.553-3.974 1.93 0 3.486 1.718 3.486 3.974 0 2.156-1.557 3.94-3.486 3.94-2.132 0-3.553-1.75-3.553-3.94zm12.508 0c0 4.513 3.249 7.881 7.784 7.881 1.794 0 3.351-.707 4.535-1.818v1.515h5.246V5.726h-5.246V7.24c-1.151-1.111-2.741-1.785-4.501-1.785-4.535 0-7.818 3.334-7.818 7.847zm5.28 0c0-2.155 1.557-3.94 3.486-3.94 2.132 0 3.553 1.751 3.553 3.94 0 3.133-2.301 3.975-3.553 3.975-1.929 0-3.486-1.718-3.486-3.975zm21.557 7.881c3.892 0 6.971-2.121 8.054-6.062l-5.008-.034c-.406 1.146-1.388 1.853-2.843 1.853-2.166 0-3.418-1.65-3.418-3.638 0-1.65 1.015-3.637 3.418-3.637 1.049 0 2.369.404 2.843 1.718l5.008-.034c-1.083-3.907-4.162-5.928-8.054-5.928-4.467 0-8.461 3.032-8.461 7.881 0 4.817 3.994 7.881 8.461 7.881zm7.802-11.585h1.963v4.513c0 4.48 2.606 6.77 7.107 6.77 1.185 0 2.606-.371 2.606-.371l-1.218-4.513c-.034 0-.542.135-1.117.135-1.185-.034-2.098-.64-2.098-2.156V9.599h4.095V5.726h-4.095V1.044h-5.28v4.682h-1.963v3.873zM51.094 42.746v-16.38h-5.669v21.6h15.32v-5.22h-9.651zm10.039-2.816c0 4.602 3.239 8.036 7.76 8.036 1.789 0 3.341-.72 4.522-1.854v1.854h5.23V32.204h-5.23v1.545a6.352 6.352 0 00-4.488-1.82c-4.521 0-7.794 3.4-7.794 8.001zm5.264 0c0-2.197 1.552-4.018 3.475-4.018 2.126 0 3.543 1.786 3.543 4.018 0 3.194-2.294 4.053-3.543 4.053-1.923 0-3.475-1.752-3.475-4.053zm14.983-14.2v22.236h5.16v-1.854C87.721 47.245 89.274 48 91.028 48c4.522 0 7.828-3.468 7.828-8.07 0-4.601-3.306-8.001-7.828-8.001-1.754 0-3.219.61-4.4 1.743V25.73H81.38zm8.737 18.253c-1.282 0-3.543-.859-3.543-4.053 0-2.232 1.417-4.018 3.543-4.018 1.923 0 3.476 1.82 3.476 4.018 0 2.301-1.553 4.053-3.476 4.053zm9.907-6.8c0 2.198 1.755 4.67 7.66 4.67 1.653 0 2.092.378 2.092 1.134 0 .618-.709 1.133-2.092 1.133-1.012 0-1.856-.515-1.856-1.133h-5.804c0 2.747 3.375 5.013 7.626 5.013 4.825 0 7.66-2.54 7.66-5.322 0-2.542-2.328-4.67-7.626-4.67-1.519 0-2.16-.447-2.16-1.134 0-.721.743-1.133 2.16-1.133 1.012 0 1.822.515 1.822 1.133h5.804c0-2.747-2.733-4.98-7.626-4.98-4.252 0-7.66 2.301-7.66 5.29z" fill="#fff"/><path fill="#000" d="M119.757 41.295h6.671v6.671h-6.671z"/><path fill="url(#paint0_linear_252_2430)" d="M119.757 41.295h6.671v6.671h-6.671z"/><path d="M21.6 0v13.024H5.719v2.859H21.6v5.082H0V7.941h15.883V5.083H0V0h21.6z" fill="#000"/><path d="M21.6 0v13.024H5.719v2.859H21.6v5.082H0V7.941h15.883V5.083H0V0h21.6z" fill="url(#paint1_linear_252_2430)"/><path d="M25.413 0h8.894v20.965h-5.083V5.083h-3.811V0z" fill="#000"/><path d="M25.413 0h8.894v20.965h-5.083V5.083h-3.811V0z" fill="url(#paint2_linear_252_2430)"/><path d="M0 26.366v6.67h8.894v-6.67H0z" fill="#000"/><path d="M0 26.366v6.67h8.894v-6.67H0z" fill="url(#paint3_linear_252_2430)"/><path d="M25.413 26.366v6.67h8.894v-6.67h-8.894z" fill="#000"/><path d="M25.413 26.366v6.67h8.894v-6.67h-8.894z" fill="url(#paint4_linear_252_2430)"/><path d="M25.413 35.26v12.706h8.894V35.26h-8.894z" fill="#000"/><path d="M25.413 35.26v12.706h8.894V35.26h-8.894z" fill="url(#paint5_linear_252_2430)"/><path d="M12.706 47.966V35.26h8.895v12.706h-8.895z" fill="#000"/><path d="M12.706 47.966V35.26h8.895v12.706h-8.895z" fill="url(#paint6_linear_252_2430)"/><path d="M0 47.966V35.26h8.894v12.706H0z" fill="#000"/><path d="M0 47.966V35.26h8.894v12.706H0z" fill="url(#paint7_linear_252_2430)"/><path d="M12.706 26.366v6.67h8.895v-6.67h-8.895z" fill="#000"/><path d="M12.706 26.366v6.67h8.895v-6.67h-8.895z" fill="url(#paint8_linear_252_2430)"/><defs><linearGradient id="paint0_linear_252_2430" x1="125.254" y1="51.19" x2="118.696" y2="46.209" gradientUnits="userSpaceOnUse"><stop stop-color="#F6F80A"/><stop offset="1" stop-color="#16D7E8"/></linearGradient><linearGradient id="paint1_linear_252_2430" x1="28.271" y1="31.097" x2="7.372" y2="5.12" gradientUnits="userSpaceOnUse"><stop stop-color="#F6F80A"/><stop offset="1" stop-color="#16D7E8"/></linearGradient><linearGradient id="paint2_linear_252_2430" x1="28.271" y1="31.097" x2="7.372" y2="5.12" gradientUnits="userSpaceOnUse"><stop stop-color="#F6F80A"/><stop offset="1" stop-color="#16D7E8"/></linearGradient><linearGradient id="paint3_linear_252_2430" x1="28.271" y1="58.404" x2="6.609" y2="32.273" gradientUnits="userSpaceOnUse"><stop stop-color="#F6F80A"/><stop offset="1" stop-color="#16D7E8"/></linearGradient><linearGradient id="paint4_linear_252_2430" x1="28.271" y1="58.404" x2="6.609" y2="32.273" gradientUnits="userSpaceOnUse"><stop stop-color="#F6F80A"/><stop offset="1" stop-color="#16D7E8"/></linearGradient><linearGradient id="paint5_linear_252_2430" x1="28.271" y1="58.404" x2="6.609" y2="32.273" gradientUnits="userSpaceOnUse"><stop stop-color="#F6F80A"/><stop offset="1" stop-color="#16D7E8"/></linearGradient><linearGradient id="paint6_linear_252_2430" x1="28.271" y1="58.404" x2="6.609" y2="32.273" gradientUnits="userSpaceOnUse"><stop stop-color="#F6F80A"/><stop offset="1" stop-color="#16D7E8"/></linearGradient><linearGradient id="paint7_linear_252_2430" x1="28.271" y1="58.404" x2="6.609" y2="32.273" gradientUnits="userSpaceOnUse"><stop stop-color="#F6F80A"/><stop offset="1" stop-color="#16D7E8"/></linearGradient><linearGradient id="paint8_linear_252_2430" x1="28.271" y1="58.404" x2="6.609" y2="32.273" gradientUnits="userSpaceOnUse"><stop stop-color="#F6F80A"/><stop offset="1" stop-color="#16D7E8"/></linearGradient></defs></svg>